/* XPM */
static char *_93ad59f6081409d9b5c82012bde68a2QVDitqJY1HLMeCCr[] = {
/* columns rows colors chars-per-pixel */
"32 32 4 1 ",
"  c black",
". c red",
"X c #0000A0",
"o c white",
/* pixels */
"                                ",
"                                ",
"        ................        ",
"        ................        ",
"      ....................      ",
"      ....................      ",
"    ....oooo......oooo......    ",
"    ....oooo......oooo......    ",
"    ..oooooooo..oooooooo....    ",
"    ..XXXXoooo..XXXXoooo....    ",
"    ..XXXXoooo..XXXXoooo....    ",
"    ..XXXXoooo..XXXXoooo....    ",
"    ..XXXXoooo..XXXXoooo....    ",
"    ..oooooooo..oooooooo....    ",
"    ....oooo......oooo......    ",
"    ....oooo......oooo......    ",
"    ........................    ",
"    ........................    ",
"    ........................    ",
"    ........................    ",
"    ........................    ",
"    ........................    ",
"    ........................    ",
"    ........................    ",
"      ....  ....  ....  ....    ",
"      ....  ....  ....  ....    ",
"        ..    ..    ..    ..    ",
"        ..    ..    ..    ..    ",
"                                ",
"                                ",
"                                ",
"                                "
};
