/* XPM */
static char *fbe7e2af816b47dda7d0ba33ba20c663sam403G5jjatGPGP[] = {
/* columns rows colors chars-per-pixel */
"32 32 3 1 ",
"  c black",
". c #FFF200",
"X c white",
/* pixels */
"                                ",
"                                ",
"                                ",
"            .......             ",
"         .............          ",
"        ...............         ",
"       .................        ",
"      ...................       ",
"     ...................        ",
"    ..................          ",
"    .................           ",
"    ...............             ",
"   ..............               ",
"   .............                ",
"   ............                 ",
"   ...........                  ",
"   ............                 ",
"   .............                ",
"   ..............               ",
"    ..............              ",
"    ...............             ",
"    ................            ",
"     ................           ",
"      .................         ",
"       .................        ",
"        ...............         ",
"         .............          ",
"            .......             ",
"                                ",
"                                ",
"                                ",
"                                "
};
