/* XPM */
static char *_3858d5f771d4ec8c276a0b778028706L7746XLhwErxhaLY[] = {
/* columns rows colors chars-per-pixel */
"32 32 4 1 ",
"  c black",
". c #EF9F0C",
"X c #0000A0",
"o c white",
/* pixels */
"                                ",
"                                ",
"        ................        ",
"        ................        ",
"      ....................      ",
"      ....................      ",
"    ....oooo......oooo......    ",
"    ....oooo......oooo......    ",
"    ..oooooooo..oooooooo....    ",
"    ..oooooooo..oooooooo....    ",
"    ..XXXXoooo..XXXXoooo....    ",
"    ..XXXXoooo..XXXXoooo....    ",
"    ..XXXXoooo..XXXXoooo....    ",
"    ..XXXXoooo..XXXXoooo....    ",
"    ....oooo......oooo......    ",
"    ....oooo......oooo......    ",
"    ........................    ",
"    ........................    ",
"    ........................    ",
"    ........................    ",
"    ........................    ",
"    ........................    ",
"    ........................    ",
"    ........................    ",
"      ....  ....  ....  ....    ",
"      ....  ....  ....  ....    ",
"        ..    ..    ..    ..    ",
"        ..    ..    ..    ..    ",
"                                ",
"                                ",
"                                ",
"                                "
};
