/* XPM */
static char *_2343ebe3b834e6a96f962e0b454ad2eU0zDa8Hy23iPrmwy[] = {
/* columns rows colors chars-per-pixel */
"32 32 4 1 ",
"  c black",
". c #0000A0",
"X c #3F93EF",
"o c white",
/* pixels */
"                                ",
"                                ",
"        XXXXXXXXXXXXXXXX        ",
"        XXXXXXXXXXXXXXXX        ",
"      XXXXXXXXXXXXXXXXXXXX      ",
"      XXXXXXXXXXXXXXXXXXXX      ",
"    XXXXooooXXXXXXooooXXXXXX    ",
"    XXXXooooXXXXXXooooXXXXXX    ",
"    XXooooooooXXooooooooXXXX    ",
"    XXooooooooXXooooooooXXXX    ",
"    XX....ooooXX....ooooXXXX    ",
"    XX....ooooXX....ooooXXXX    ",
"    XX....ooooXX....ooooXXXX    ",
"    XX....ooooXX....ooooXXXX    ",
"    XXXXooooXXXXXXooooXXXXXX    ",
"    XXXXooooXXXXXXooooXXXXXX    ",
"    XXXXXXXXXXXXXXXXXXXXXXXX    ",
"    XXXXXXXXXXXXXXXXXXXXXXXX    ",
"    XXXXXXXXXXXXXXXXXXXXXXXX    ",
"    XXXXXXXXXXXXXXXXXXXXXXXX    ",
"    XXXXXXXXXXXXXXXXXXXXXXXX    ",
"    XXXXXXXXXXXXXXXXXXXXXXXX    ",
"    XXXXXXXXXXXXXXXXXXXXXXXX    ",
"    XXXXXXXXXXXXXXXXXXXXXXXX    ",
"      XXXX  XXXX  XXXX  XXXX    ",
"      XXXX  XXXX  XXXX  XXXX    ",
"        XX    XX    XX    XX    ",
"        XX    XX    XX    XX    ",
"                                ",
"                                ",
"                                ",
"                                "
};
