/* XPM */
static char *_93ad59f6081409d9b5c82012bde68a2QVDitqJY1HLMeCCr[] = {
/* columns rows colors chars-per-pixel */
"32 32 4 1 ",
"  c black",
". c #3F93EF",
"x c #0000A0",
"o c white",
/* pixels */
"                                ",
"                                ",
"        ................        ",
"        ................        ",
"      ....................      ",
"      ....................      ",
"    ....oooo......oooo......    ",
"    ....xxxx......xxxx......    ",
"    ..ooxxxxoo..ooxxxxoo....    ",
"    ..ooxxxxoo..ooxxxxoo....    ",
"    ..ooxxxxoo..ooxxxxoo....    ",
"    ..oooooooo..oooooooo....    ",
"    ..oooooooo..oooooooo....    ",
"    ..oooooooo..oooooooo....    ",
"    ....oooo......oooo......    ",
"    ....oooo......oooo......    ",
"    ........................    ",
"    ........................    ",
"    ........................    ",
"    ........................    ",
"    ........................    ",
"    ........................    ",
"    ........................    ",
"    ........................    ",
"      ....  ....  ....  ....    ",
"      ....  ....  ....  ....    ",
"        ..    ..    ..    ..    ",
"        ..    ..    ..    ..    ",
"                                ",
"                                ",
"                                ",
"                                "
};
