/* XPM */
static char *_93ad59f6081409d9b5c82012bde68a2QVDitqJY1HLMeCCr[] = {
/* columns rows colors chars-per-pixel */
"32 32 4 1 ",
"  c black",
". c #FF80FF",
"x c #0000A0",
"o c white",
/* pixels */
"                                ",
"                                ",
"        ................        ",
"        ................        ",
"      ....................      ",
"      ....................      ",
"    ....oooo......oooo......    ",
"    ....oooo......oooo......    ",
"    ..oooooooo..oooooooo....    ",
"    ..ooooxxxx..ooooxxxx....    ",
"    ..ooooxxxx..ooooxxxx....    ",
"    ..ooooxxxx..ooooxxxx....    ",
"    ..ooooxxxx..ooooxxxx....    ",
"    ..oooooooo..oooooooo....    ",
"    ....oooo......oooo......    ",
"    ....oooo......oooo......    ",
"    ........................    ",
"    ........................    ",
"    ........................    ",
"    ........................    ",
"    ........................    ",
"    ........................    ",
"    ........................    ",
"    ........................    ",
"      ....  ....  ....  ....    ",
"      ....  ....  ....  ....    ",
"        ..    ..    ..    ..    ",
"        ..    ..    ..    ..    ",
"                                ",
"                                ",
"                                ",
"                                "
};
