/* XPM */
static char *_fb75fd9084d4222de841260db6f7ffdyeR1RRDCcl29YVXD[] = {
/* columns rows colors chars-per-pixel */
"64 64 13 1 ",
"  c black",
". c #593D29",
"X c #79553A",
"o c #004D40",
"O c #00796B",
"+ c #745844",
"@ c #6C6C6C",
"# c #966C4A",
"$ c #4CAF50",
"% c #B9855C",
"& c #8BC34A",
"* c #009688",
"= c gray53",
/* pixels */
"                                                                ",
" %%%########XXXXXXXX%%%%########XXXXXXXX....XXXXXXXX%%%%XXXX%%% ",
" %%%########XXXXXXXX%%%%########XXXXXXXX....XXXXXXXX%%%%XXXX%%% ",
" %%%########XXXXXXXX%%%%########XXXXXXXX....XXXXXXXX%%%%XXXX%%% ",
" XXX####....XXXXXXXX####====....XXXX%%%%####XXXX%%%%####....... ",
" XXX####....XXXXXXXX####====....XXXX%%%%####XXXX%%%%####....... ",
" XXX####....XXXXXXXX####====....XXXX%%%%####XXXX%%%%####....... ",
" XXX####....XXXXXXXX####====....XXXX%%%%####XXXX%%%%####....... ",
" %%%XXXXXXXX....%%%%XXXXXXXXXXXX%%%%XXXXXXXXXXXX........%%%%### ",
" %%%XXXXXXXX....%%%%XXXXXXXXXXXX%%%%XXXXXXXXXXXX........%%%%### ",
" %%%XXXXXXXX....%%%%XXXXXXXXXXXX%%%%XXXXXXXXXXXX........%%%%### ",
" %%%XXXXXXXX....%%%%XXXXXXXXXXXX%%%%XXXXXXXXXXXX........%%%%### ",
" ###@@@@%%%%XXXX####....XXXX%%%%########XXXX####XXXX%%%%####XXX ",
" ###@@@@%%%%XXXX####....XXXX%%%%########XXXX####XXXX%%%%####XXX ",
" ###@@@@%%%%XXXX####....XXXX%%%%########XXXX####XXXX%%%%####XXX ",
" ###@@@@%%%%XXXX####....XOOOOOOOOOOOOO##XXXX####XXXX%%%%####XXX ",
" ###XXXX####%%%%....#OOOO$$&&&&&&&&&$$OOOOXX@@@@XXXX####....XXX ",
" ###XXXX####%%%%....#OOOO$$&&&&&&&&&$$OOOOXX@@@@XXXX####....XXX ",
" ###XXXX####%%%%....O$&&&&&&&&&&&&&&&&&&&$OX@@@@XXXX####....XXX ",
" ###XXXX####%%%%..OO$&&&&&&&&&&&&&&&&&&&&&$OO@@@XXXX####....XXX ",
" XXX....########XXOO$&&&&&&&&&&&&&&&&&&&&&$OO...XXXXXXXXXXXX%%% ",
" XXX....########XO$$&&&&&&&&&&&&&&&&&&&&&&&$$O..XXXXXXXXXXXX%%% ",
" XXX....########XO$$&&&&&&&&&&&&&&&&&&&&&&&$$O..XXXXXXXXXXXX%%% ",
" XXX....########XO$$&&&&&&&&&&&&&&&&&&&&&&&$$O..XXXXXXXXXXXX%%% ",
" %%%XXXXXXXXXXXOO$&&&&&&&&&&&&&&&&&&&&&&&&&&&$OOXXXX####XXXX### ",
" %%%XXXXXXXXXXXOO&&&&&&&&&&&&&&&&&&&&&&&&&&&&&OOXXXX####XXXX### ",
" %%%XXXXXXXXXXXOO&&&&&&&&&&&&&&&&&&&&&&&&&&&&&OOXXXX####XXXX### ",
" %%%XXXXXXXXXXO$$&&&&&&&&&&&&&&&&&&&&&&&&&&&&&$$OXXX####XXXX### ",
" XXXXXXX%%%%%%O$$&&&&&&&&&&&&&&&&&&&&&&&&&&&&&$$OXXXXXXX####### ",
" XXXXXXX%%%%%%O$$&&&&&&&&&&&&&&&&&&&&&&&&&&&&&$$OXXXXXXX####### ",
" XXXXXXX%%%%%%O$$&&&&&&&&&&&&&&&&&&&&&&&&&&&&&$$OXXXXXXX####### ",
" XXXXXXX%%%%%%%OO$$$&&&&&&&&&&&&&&&&&&&&&&&&&$OOXXXXXXXX####### ",
" ###XXXXXXXX###OO$$$&&&&&&&&&&&&&&&&&&&&&&&&&$OOXXXXXXXX....XXX ",
" ###XXXXXXXX##O$$$$$$&&&&&&&&&&&&&&&&&&&&&&&&$$$oXXXXXXX....XXX ",
" ###XXXXXXXX##O$$$$$$$$$&&&&&&&&&&&&&&$$$&&$$$$$oXXXXXXX....XXX ",
" ###XXXXXXXX##O$$$$$$$$$&&&&&&&&&&&&&&$$$&&$$$$$oXXXXXXX....XXX ",
" XXX####....XXXoo$$$$$&&&&&&&&&&&&&&&&$$$$$$$$oo%%%%%%%%XXXX### ",
" XXX####....XXXoo$$$$$&&&&&&&&&&&&&&&&$$$$$$$$oo%%%%%%%%XXXX### ",
" XXX####....XXXoo$$$$$&&&&&&&&&&&&&&&&$$$$$$$$oo%%%%%%%%XXXX### ",
" XXX####....XXXXXo$$$$$$&&&&&$$&&&&&&&$$$$$$$oXX%%%%%%%%XXXX### ",
" XXX####XXXX%%%%%o$$$$$$$$$$$$$$&&&&$$$$$$$$$o..########====XXX ",
" XXX####XXXX%%%%%o$$$$$$$$$$$$$$&&&&$$$$$$$$$o..########====XXX ",
" XXX####XXXX%%%%%%oo$$$$$$$$$$$$$$$$$$$$$$*oo...########====XXX ",
" XXX####XXXX%%%%%%%%o*$$$$$****$$$$$$$$$$*o%....########====XXX ",
" ###XXXXXXXX########o*$$$$$****$$$$$$$$$$*o#XXXX....####XXXX... ",
" ###XXXXXXXX########%o**********$$$******o##XXXX....####XXXX... ",
" ###XXXXXXXX########%%%%XXX***********######XXXX....####XXXX... ",
" ###XXXXXXXX########%%%%XXXX####@@@@########XXXX....####XXXX... ",
" XXX....####XXXX########%%%%XXXXXXXXXXXXXXXXXXXXXXXXXXXX%%%%%%% ",
" XXX....####XXXX########%%%%XXXXXXXXXXXXXXXXXXXXXXXXXXXX%%%%%%% ",
" XXX....####XXXX########%%%%XXXXXXXXXXXXXXXXXXXXXXXXXXXX%%%%%%% ",
" XXX....####XXXX########%%%%XXXXXXXXXXXXXXXXXXXXXXXXXXXX%%%%%%% ",
" XXX####XXXXXXXX++++XXXX########XXXX....%%%%....XXXX%%%%####### ",
" XXX####XXXXXXXX++++XXXX########XXXX....%%%%....XXXX%%%%####### ",
" XXX####XXXXXXXX++++XXXX########XXXX....%%%%....XXXX%%%%####### ",
" XXX####XXXXXXXX++++XXXX########XXXX....%%%%....XXXX%%%%####### ",
" ###XXXX....%%%%XXXX....XXXX....%%%%%%%%XXXX####XXXXXXXX####### ",
" ###XXXX....%%%%XXXX....XXXX....%%%%%%%%XXXX####XXXXXXXX####### ",
" ###XXXX....%%%%XXXX....XXXX....%%%%%%%%XXXX####XXXXXXXX####### ",
" ###XXXX....%%%%XXXX....XXXX....%%%%%%%%XXXX####XXXXXXXX####### ",
" ###XXXX%%%%########XXXX====XXXX########XXXXXXXX########XXXX... ",
" ###XXXX%%%%########XXXX====XXXX########XXXXXXXX########XXXX... ",
" ###XXXX%%%%########XXXX====XXXX########XXXXXXXX########XXXX... ",
"                                                                "
};
