/* XPM */
static char *_f6320d9c2704b03aab5405f4c434384HDXEbUVh5Ra9UwGQ[] = {
/* columns rows colors chars-per-pixel */
"64 64 10 1 ",
"  c black",
". c #313131",
"X c #353535",
"o c #593D29",
"O c #79553A",
"+ c gray25",
"@ c gray34",
"# c #966C4A",
"$ c #B9855C",
"% c gray53",
/* pixels */
"                                                                ",
" ++++++++++XX..XXXXXXX++++++XX................XX+++++++++++++++ ",
" ++++++++++XX..XXXXXXX++++++XX................XX+++++++++++++++ ",
" ++++++++XX...........XXXXXX....@@@@@@@@@@@@@@..X++++++++++++++ ",
" ++++++++XX...........XXXXXX....@@@@@@@@@@@@@@..X++++++++++++++ ",
" ++++++++XX..@@@@@@@@@........@@++++++++++++++@@.XX++++++++++++ ",
" ++++++++XX..@@@@@@@@@........@@++++++++++++++@@.XX++++++++++++ ",
" XXXXXXXX..@@+++++++++@@@@XX..XXXXXXXX++++++++++@..XX++++++XXXX ",
" XXXXXXXX..@@+++++++++@@@@XX..XXXXXXXX++++++++++@..XX++++++XXXX ",
" ..........XXXXXXX++++++XX............XX+++++++++..XXXXXXXX.... ",
" ..........XXXXXXX++++++XX............XX+++++++++..XXXXXXXX.... ",
" @@@@@@XX.........XX++XX....@@@@@@@@....XX+++++++............@@ ",
" @@@@@@XX.........XX++XX....@@@@@@@@....XX+++++++............@@ ",
" ++++XX......@@@@...XX..@@@@++++++++@@....XXXXXXX..@@@@@@@@@@++ ",
" ++++XX......@@@@...XX..@@@@++++++++@@....XXXXXXX..@@@@@@@@@@++ ",
" ++XX....@@@@++++@....@@++++++++++++++@@.............XX++++++++ ",
" ++XX....@@@@++++@....@@++++++++++++++@@.............XX++++++++ ",
" XX....@@+++++++++@@....++++++++++++++++..@@@@@@@@@@@..XX++++++ ",
" ....@@+++++++++++++@@..XXXXXX++++++++++..@@+++++++++@@..XX++++ ",
" ....@@+++++++++++++@@..XXXXXX++++++++++..@@+++++++++@@..XX++++ ",
" @@..@@+++++++++++++++........XX++++++++....@@+++++++++@@..XXXX ",
" @@..@@+++++++++++++++........XX++++++++....@@+++++++++@@..XXXX ",
" @@....+++++++++++++++..@@@@....XX++++++....@@+++++++++++...... ",
" @@....+++++++++++++++..@@@@....XX++++++....@@+++++++++++...... ",
" @@XX....+++++++++++++..++++@@@@..XX++++..@@..XX+++++++....@@++ ",
" @@XX....+++++++++++++..++++@@@@..XX++++..@@..XX+++++++....@@++ ",
" @@..@@..+++++++++++++..++++++@@....XXXX..@@....+++++++..@@++++ ",
" @@..@@..+++++++++++++..++++++@@....XXXX..@@....+++++++..@@++++ ",
" XX..++..+++++++++++XX..++++++++@@......@@++@@..+++++++..++++++ ",
" XX..++..+++++++++++XX..++++++++@@......@@++@@..+++++++..++++++ ",
" ....++..XXXX+++++++....++++++++++....@@++++++..+++++XX..XX++++ ",
" ....++..XXXX+++++++....++++++++++....@@++++++..+++++XX..XX++++ ",
" ..@@++++....XXXXXXX..++++++++++++..@@++++++++..X++XX..XX++++@@ ",
" ..@@++++....XXXXXXX..++++++++++++..@@++++++++..X++XX..XX++++@@ ",
" ..++++++@@@@.........++++++++++XX..@@++++++++...XX..XXXXXX++@@ ",
" ..++++++@@@@.........++++++++++XX..@@++++++++...XX..XXXXXX++@@ ",
" ..++++++++++@@..+++++++++++++XX....@@++++++++.....++......XXXX ",
" ..++++++++++@@..+++++++++++++XX....@@++++++++.....++......XXXX ",
" ....++++++++++..X++++++XXXXXX....@@++++++++XX..@....@@@@@@.... ",
" ....++++++++++..X++++++XXXXXX....@@++++++++XX..@....@@@@@@.... ",
" @@..++++++++++...XXXXXX........@@++++XXXXXX....+@@..++++++@@.. ",
" @@..++++++++++...XXXXXX........@@++++XXXXXX....+@@..++++++@@.. ",
" @@..XX++++++++++X......@@@@@@..XXXXXX......@@@@+++..++++++++@@ ",
" @@..XX++++++++++X......@@@@@@..XXXXXX......@@@@+++..++++++++@@ ",
" ++@@..XXXX++++XX.@@@@@@++++@@..........@@@@+++++++..++++++++++ ",
" ++@@..XXXX++++XX.@@@@@@++++@@..........@@@@+++++++..++++++++++ ",
" ++++@@....XXXX...++++++++++++@@@@@@@@..@@+++++++++......++++++ ",
" ++++@@....XXXX...++++++++++++@@@@@@@@..@@+++++++++......++++++ ",
" ++++++@@......@@...++++++++++++++++XX..+++++++++XX..@@@@..++++ ",
" ++++++..@@@@@@++@..XXXX++++++++++XX....++++++++X....@@++@@..++ ",
" ++++++..@@@@@@++@..XXXX++++++++++XX....++++++++X....@@++@@..++ ",
" ++++++..+++++++++++....XXXXXXXXXX....++++++++XX...@@++++++@@.. ",
" ++++++..+++++++++++....XXXXXXXXXX....++++++++XX...@@++++++@@.. ",
" ..........XX+++++++++..............++++++++XX...@@++++++XX..@@ ",
" ..........XX+++++++++..............++++++++XX...@@++++++XX..@@ ",
" @@@@@@@@....XXXX+++XXXX......@@....XXXXXXXX....@++++++XX..@@++ ",
" @@@@@@@@....XXXX+++XXXX......@@....XXXXXXXX....@++++++XX..@@++ ",
" ++++++++@@......XXX........@@++@@............@@+++++XX..@@++++ ",
" ++++++++@@......XXX........@@++@@............@@+++++XX..@@++++ ",
" ++++++++++@@@@.......++++..++++++++....+++++++++++XX..@@++++++ ",
" ++++++++++@@@@.......++++..++++++++....+++++++++++XX..@@++++++ ",
" ++++++..+++++++++++++++++..++++++++++....+++++++++..++++++++++ ",
" ###OOOO$$$$########OOOO%%%%OOOO########OOOOOOOO########OOOOooo ",
"                                                                "
};
