/* XPM */
static char *a90c40889cf64874948c58c01bebc7d03jhrSp7fozuneWJq[] = {
/* columns rows colors chars-per-pixel */
"64 64 20 1 ",
"  c black",
". c #2B251F",
"X c gray13",
"o c #2E2820",
"O c #3B3527",
"+ c #3B3228",
"@ c #232D33",
"# c #263238",
"$ c #593D29",
"% c #79553A",
"& c #233D47",
"* c #2D4A54",
"= c #304E59",
"- c #745844",
"; c #6C6C6C",
": c #966C4A",
"> c #B9855C",
", c gray53",
"< c #E0D08F",
"1 c #F5E49C",
/* pixels */
"                                                                ",
" >>>::::::::%%%%%%%%>>>>::::::::%%%%%%%%$$$$%%%%%%%%>>>>%%%%>>> ",
" >>>::::::::%%%%%%%%>>>>::::::::%%%%%%%%$$$$%%%%%%%%>>>>%%%%>>> ",
" >>>::::::::%%%%%%%%>>>>::::::::%%%%%%%%$$$$%%%%%%%%>>>>%%%%>>> ",
" %%%::::$$$$%%%%%%%%::::,,,,$$$$%%%%>>>>::::%%%%>>>>::::$$$$$$$ ",
" %%%::::$$$$%%%%%%%%::::,,,,$$$$%%%%>>>>::::%%%%>>>>::::$$$$$$$ ",
" %%%::::$$$$%%%%%%%%::::,,,,$$$$%%%%>>>>::::%%%%>>>>::::$$$$$$$ ",
" %%%::::$$$$%%%%%%%%########################%%%%>>>>::::$$$$$$$ ",
" >>>%%%%%%%%$$$$>>>>########################%%%%$$$$$$$$>>>>::: ",
" >>>%%%%%%%%$$$$>>>>########################%%%%$$$$$$$$>>>>::: ",
" >>>%%%%%%%%$$$$>>>>###@@@@###@@@@1111111%%%%%%%$$$$$$$$>>>>::: ",
" >>>%%%%%%%%$$$$>>>>###@@@@###@@@@1111111%%%%%%%$$$$$$$$>>>>::: ",
" :::;;;;>>>>%%%%::::###1111@@@1111111XXXX%%%::::%%%%>>>>::::%%% ",
" :::;;;;>>>>%%%%::::###1111@@@1111111XXXX%%%::::%%%%>>>>::::%%% ",
" :::;;;;>>>>%%%%::::###1111@@@1111111XXXX%%%::::%%%%>>>>::::%%% ",
" :::;;;;>>>>%%%%::::###111111111111111111%%%::::%%%%>>>>::::%%% ",
" :::%%%%::::>>>>$$$$###111111111111111111%%%;;;;%%%%::::$$$$%%% ",
" :::%%%%::::>>>>$$$$###111111111111111111%%%;;;;%%%%::::$$$$%%% ",
" :::%%%%::::>>>>$$$$:::111111111111111111%%%;;;;%%%%::::$$$$%%% ",
" :::%%%%::::>>>>$$$$:::111111111111111111%%%;;;;%%%%::::$$$$%%% ",
" %%%$$$$::::::::%%%%:::111111111111111111%%%$$$$%%%%%%%%%%%%>>> ",
" %%%$$$$::::::::%%%%:::111111111111111111%%%$$$$%%%%%%%%%%%%>>> ",
" %%%$$$$::::::::%%%%:::111111111111111111%%%$$$$%%%%%%%%%%%%>>> ",
" %%%$$$$:::::&&&&&&&&&&&&&&&&&&&&&&&&&&&&&&&&&&&&&&%%%%%%%%%>>> ",
" >>>%%%%%%%%%&&&&&&&&&&&&&&&&&&&&&&&&&&&&&&&&&&&&&&%::::%%%%::: ",
" >>>%%%%%%%%%&&&&&&&&&&&&&&&&&&&&&&&&&&&&&&&&&&&&&&%::::%%%%::: ",
" >>>%%%%%%%%%=======&&&&&&&&&&*******&&&&&&&=======%::::%%%%::: ",
" >>>%%%%%%%%%=======&&&&&&&&&&*******&&&&&&&=======%::::%%%%::: ",
" %%%%%%%>>>>>=======&&&&&&&&&&*******&&&&&&&=======%%%%%::::::: ",
" %%%%%%%>>>>>1111111&&&&&&&&&&=======&&&&&&&1111111%%%%%::::::: ",
" %%%%%%%>>>>>1111111&&&&&&&&&&=======&&&&&&&1111111%%%%%::::::: ",
" %%%%%%%>>>>>1111111&&&&&&&&&&=======&&&&&&&1111111%%%%%::::::: ",
" :::%%%%%%%%:1111111&&&&&&&&&&*******&&&&&&&1111111%%%%%$$$$%%% ",
" :::%%%%%%%%:1111111&&&&&&&&&&*******&&&&&&&1111111%%%%%$$$$%%% ",
" :::%%%%%%%%:<<<1111&&&&&&&&&&*******&&&&&&&1111<<<%%%%%$$$$%%% ",
" :::%%%%%%%%:<<<1111&&&&&&&&&&*******&&&&&&&1111<<<%%%%%$$$$%%% ",
" %%%::::$$$$%<<<1111&&&&&&&&&&*******&&&&&&&1111<<<>>>>>%%%%::: ",
" %%%::::$$$$%%%%%%%%&&&&&&&&&&*******&&&&&&&%%%%>>>>>>>>%%%%::: ",
" %%%::::$$$$%%%%%%%%&&&&&&&&&&*******&&&&&&&%%%%>>>>>>>>%%%%::: ",
" %%%::::$$$$%%%%%%%%&&&&&&&&&&*******&&&&&&&%%%%>>>>>>>>%%%%::: ",
" %%%::::%%%%>>>>>>>>&&&&&&&&&&*******&&&&&&&$$$$::::::::,,,,%%% ",
" %%%::::%%%%>>>>>>>>&&&&&&&&&&*******&&&&&&&$$$$::::::::,,,,%%% ",
" %%%::::%%%%>>>>>>>>&&&&&&&&&&*******&&&&&&&$$$$::::::::,,,,%%% ",
" %%%::::%%%%>>>>>>>>&&&&&&&&&&*******&&&&&&&$$$$::::::::,,,,%%% ",
" :::%%%%%%%%::::::::&&&&&&&&&&*******&&&&&&&%%%%$$$$::::%%%%$$$ ",
" :::%%%%%%%%::::::::+++++++%::::;;;;:+++++++%%%%$$$$::::%%%%$$$ ",
" :::%%%%%%%%::::::::+++++++%::::;;;;:+++++++%%%%$$$$::::%%%%$$$ ",
" :::%%%%%%%%::::::::+++++++%::::;;;;:+++++++%%%%$$$$::::%%%%$$$ ",
" %%%$$$$::::%%%%::::+++++++>%%%%%%%%%OOOOOOO%%%%%%%%%%%%>>>>>>> ",
" %%%$$$$::::%%%%::::+++++++>%%%%%%%%%OOOOOOO%%%%%%%%%%%%>>>>>>> ",
" %%%$$$$::::%%%%::::+++++++>%%%%%%%%%OOOOOOO%%%%%%%%%%%%>>>>>>> ",
" %%%$$$$::::%%%%::::ooooooo>%%%%%%%%%ooooooo%%%%%%%%%%%%>>>>>>> ",
" %%%::::%%%%%%%%----ooooooo:::::%%%%$ooooooo$$$$%%%%>>>>::::::: ",
" %%%::::%%%%%%%%----..........::%%%%$...........%%%%>>>>::::::: ",
" %%%::::%%%%%%%%----..........::%%%%$...........%%%%>>>>::::::: ",
" %%%::::%%%%%%%%----..........::%%%%$...........%%%%>>>>::::::: ",
" :::%%%%$$$$>>>>%%%%$$$$%%%%$$$$>>>>>>>>%%%%::::%%%%%%%%::::::: ",
" :::%%%%$$$$>>>>%%%%$$$$%%%%$$$$>>>>>>>>%%%%::::%%%%%%%%::::::: ",
" :::%%%%$$$$>>>>%%%%$$$$%%%%$$$$>>>>>>>>%%%%::::%%%%%%%%::::::: ",
" :::%%%%$$$$>>>>%%%%$$$$%%%%$$$$>>>>>>>>%%%%::::%%%%%%%%::::::: ",
" :::%%%%>>>>::::::::%%%%,,,,%%%%::::::::%%%%%%%%::::::::%%%%$$$ ",
" :::%%%%>>>>::::::::%%%%,,,,%%%%::::::::%%%%%%%%::::::::%%%%$$$ ",
" :::%%%%>>>>::::::::%%%%,,,,%%%%::::::::%%%%%%%%::::::::%%%%$$$ ",
"                                                                "
};
