/* XPM */
static char *_7715f6ebb374354a0948af9bd111638FmWBP2K4c4288AF3[] = {
/* columns rows colors chars-per-pixel */
"64 64 12 1 ",
"  c black",
". c #593D29",
"X c #79553A",
"o c #37474F",
"O c #745844",
"+ c #6C6C6C",
"@ c #966C4A",
"# c #008000",
"$ c #4CAF50",
"% c #CDDC39",
"& c #B9855C",
"* c gray53",
/* pixels */
"                                                                ",
" &&&@@@@@@@@XXXXXXXX&&&&%$$$$$@@XXXXXXXX....XXXXXXXX&&&&XXXX&&& ",
" &&&@@@@@@@@XXXXXXXX&&&&%$$$$$$$$$$XXXXX....XXXXXXXX&&&&XXXX&&& ",
" &&&@@@@@@@@XXXXXXXX&&&&%$$$$$$$$$$XXXXX....XXXXXXXX&&&&XXXX&&& ",
" XXX@@@@....oooooooooooo%$$$$$$$$$$$$$oo@@@@XXXX&&&&@@@@....... ",
" XXX@@@@....oooooooooooo%$$$$$$$$$$$$$oo@@@@XXXX&&&&@@@@....... ",
" XXX@@@@....ooo         %$$$####$$$$$$oo@@@@XXXX&&&&@@@@....... ",
" XXX@@@@....ooo         %$$$####$$$$$$oo@@@@XXXX&&&&@@@@....... ",
" &&&XXXXXXXXooo         %$$$##$$###$$$ooXXXXXXXX........&&&&@@@ ",
" &&&XXXXXXXXooo         %$$$##$$#$$%%$ooXXXXXXXX........&&&&@@@ ",
" &&&XXXXXXXXooo         %$$$##$$#$$%%$ooXXXXXXXX........&&&&@@@ ",
" &&&XXXXXXXXooo         %$$$##$$#$$%%$ooXXXXXXXX........&&&&@@@ ",
" @@@++++&&&&ooo         %$$$##$$#$$%%%ooXXXX@@@@XXXX&&&&@@@@XXX ",
" @@@++++&&&&ooo         %$$$##$$#$$%%#ooXXXX@@@@XXXX&&&&@@@@XXX ",
" @@@++++&&&&ooo         %$$$##$$#$$%%#ooXXXX@@@@XXXX&&&&@@@@XXX ",
" @@@++++&&&&ooo         %$$$##$$#$$%%#ooXXXX@@@@XXXX&&&&@@@@XXX ",
" @@@XXXX@@@@ooo         %$$$##$$#$$%%#ooXXXX++++XXXX@@@@....XXX ",
" @@@XXXX@@@@ooo         %$$$##$$#$$%%$ooXXXX++++XXXX@@@@....XXX ",
" @@@XXXX@@@@ooo         %$$$##$$#$$%%$ooXXXX++++XXXX@@@@....XXX ",
" @@@XXXX@@@@ooo         %$$$##$$#$$%%$ooXXXX++++XXXX@@@@....XXX ",
" XXX....@@@@ooo         %$$$##$$#$$%%$ooXXXX....XXXXXXXXXXXX&&& ",
" XXX....@@@@ooo         %$$$$$%%%$$%%$ooXXXX....XXXXXXXXXXXX&&& ",
" XXX....@@@@ooo         %$$$$$$$$%%%%$ooXXXX....XXXXXXXXXXXX&&& ",
" XXX....@@@@ooo         %$$$$$$$$$$$$$ooXXXX....XXXXXXXXXXXX&&& ",
" &&&XXXXXXXXooo         %$$$$$$$$$$$$$oo&&&&&&&&XXXX@@@@XXXX@@@ ",
" &&&XXXXXXXXooo         %$$$$$$$$$$$$$oo&&&&&&&&XXXX@@@@XXXX@@@ ",
" &&&XXXXXXXXooo         %$$$$$$$$$$$$$oo&&&&&&&&XXXX@@@@XXXX@@@ ",
" &&&XXXXXXXXooo         %$$$$$$$$$$$$$oo&&&&&&&&XXXX@@@@XXXX@@@ ",
" XXXXXXX&&&&ooo         %$$$$$$$$$$$$$oo@@@@@@@@XXXXXXXX@@@@@@@ ",
" XXXXXXX&&&&ooo         %$$$$$$$$##%%$oo@@@@@@@@XXXXXXXX@@@@@@@ ",
" XXXXXXX&&&&ooo         %$$$$$###$$%%$oo@@@@@@@@XXXXXXXX@@@@@@@ ",
" XXXXXXX&&&&ooo         %$$$##$$#$$%%$oo@@@@@@@@XXXXXXXX@@@@@@@ ",
" @@@XXXXXXXXooo         %$$$##$$#$$%%$oo@@@@XXXXXXXXXXXX....XXX ",
" @@@XXXXXXXXooo         %$$$##$$#$$%%$oo@@@@XXXXXXXXXXXX....XXX ",
" @@@XXXXXXXXooo         %$$$##$$#$$%%$oo@@@@XXXXXXXXXXXX....XXX ",
" @@@XXXXXXXXooo         %$$$##$$#$$%%%oo@@@@XXXXXXXXXXXX....XXX ",
" XXX@@@@....ooo         %$$$##$$#$$%%%ooXXXXXXXX&&&&&&&&XXXX@@@ ",
" XXX@@@@....ooo         %$$$##$$#$$%%#ooXXXXXXXX&&&&&&&&XXXX@@@ ",
" XXX@@@@....ooo         %$$$##$$#$$%%#ooXXXXXXXX&&&&&&&&XXXX@@@ ",
" XXX@@@@....ooo         %$$$##$$#$$%%#ooXXXXXXXX&&&&&&&&XXXX@@@ ",
" XXX@@@@XXXXooo         %$$$##$$#$$%%$oo&&&&....@@@@@@@@****XXX ",
" XXX@@@@XXXXooo         %$$$##$$#$$%%$oo&&&&....@@@@@@@@****XXX ",
" XXX@@@@XXXXooo         %$$$##$$#$$%%$oo&&&&....@@@@@@@@****XXX ",
" XXX@@@@XXXXooo         %$$$##$$%%%$$$oo&&&&....@@@@@@@@****XXX ",
" @@@XXXXXXXXooo         %$$$##%%$$$$$$oo@@@@XXXX....@@@@XXXX... ",
" @@@XXXXXXXXooo         %$$$##%%$$$$$$oo@@@@XXXX....@@@@XXXX... ",
" @@@XXXXXXXXoooooooooooo%$$$$$$$$$$$$$oo@@@@XXXX....@@@@XXXX... ",
" @@@XXXXXXXXoooooooooooo%$$$$$$$$$$$$$oo@@@@XXXX....@@@@XXXX... ",
" XXX....@@@@XXXX@@@@@@@@%$$$$$$$$$$XXXXXXXXXXXXXXXXXXXXX&&&&&&& ",
" XXX....@@@@XXXX@@@@@@@@%$$$$$$$$$$XXXXXXXXXXXXXXXXXXXXX&&&&&&& ",
" XXX....@@@@XXXX@@@@@@@@%$$$$$XXXXXXXXXXXXXXXXXXXXXXXXXX&&&&&&& ",
" XXX....@@@@XXXX@@@@@@@@&&&&XXXXXXXXXXXXXXXXXXXXXXXXXXXX&&&&&&& ",
" XXX@@@@XXXXXXXXOOOOXXXX@@@@@@@@XXXX....&&&&....XXXX&&&&@@@@@@@ ",
" XXX@@@@XXXXXXXXOOOOXXXX@@@@@@@@XXXX....&&&&....XXXX&&&&@@@@@@@ ",
" XXX@@@@XXXXXXXXOOOOXXXX@@@@@@@@XXXX....&&&&....XXXX&&&&@@@@@@@ ",
" XXX@@@@XXXXXXXXOOOOXXXX@@@@@@@@XXXX....&&&&....XXXX&&&&@@@@@@@ ",
" @@@XXXX....&&&&XXXX....XXXX....&&&&&&&&XXXX@@@@XXXXXXXX@@@@@@@ ",
" @@@XXXX....&&&&XXXX....XXXX....&&&&&&&&XXXX@@@@XXXXXXXX@@@@@@@ ",
" @@@XXXX....&&&&XXXX....XXXX....&&&&&&&&XXXX@@@@XXXXXXXX@@@@@@@ ",
" @@@XXXX....&&&&XXXX....XXXX....&&&&&&&&XXXX@@@@XXXXXXXX@@@@@@@ ",
" @@@XXXX&&&&@@@@@@@@XXXX****XXXX@@@@@@@@XXXXXXXX@@@@@@@@XXXX... ",
" @@@XXXX&&&&@@@@@@@@XXXX****XXXX@@@@@@@@XXXXXXXX@@@@@@@@XXXX... ",
" @@@XXXX&&&&@@@@@@@@XXXX****XXXX@@@@@@@@XXXXXXXX@@@@@@@@XXXX... ",
"                                                                "
};
