/* XPM */
static char *a689e88e6d5e44c8e9676eabf5edd454J8kURUdtyWAyBhcy[] = {
/* columns rows colors chars-per-pixel */
"64 64 8 1 ",
"  c black",
". c #593D29",
"X c #79553A",
"o c #745844",
"O c #6C6C6C",
"+ c #966C4A",
"@ c #B9855C",
"# c gray53",
/* pixels */
"                                                                ",
" @@@++++++++XXXXXXXX@@@@++++++++XXXXXXXX....XXXXXXXX@@@@XXXX@@@ ",
" @@@++++++++XXXXXXXX@@@@++++++++XXXXXXXX....XXXXXXXX@@@@XXXX@@@ ",
" @@@++++++++XXXXXXXX@@@@++++++++XXXXXXXX....XXXXXXXX@@@@XXXX@@@ ",
" XXX++++....XXXXXXXX++++####....XXXX@@@@++++XXXX@@@@++++....... ",
" XXX++++....XXXXXXXX++++####....XXXX@@@@++++XXXX@@@@++++....... ",
" XXX++++....XXXXXXXX++++####....XXXX@@@@++++XXXX@@@@++++....... ",
" XXX++++....XXXXXXXX++++####....XXXX@@@@++++XXXX@@@@++++....... ",
" @@@XXXXXXXX....@@@@XXXXXXXXXXXX@@@@XXXXXXXXXXXX........@@@@+++ ",
" @@@XXXXXXXX....@@@@XXXXXXXXXXXX@@@@XXXXXXXXXXXX........@@@@+++ ",
" @@@XXXXXXXX....@@@@XXXXXXXXXXXX@@@@XXXXXXXXXXXX........@@@@+++ ",
" @@@XXXXXXXX....@@@@XXXXXXXXXXXX@@@@XXXXXXXXXXXX........@@@@+++ ",
" +++OOOO@@@@XXXX++++....XXXX@@@@++++++++XXXX++++XXXX@@@@++++XXX ",
" +++OOOO@@@@XXXX++++....XXXX@@@@++++++++XXXX++++XXXX@@@@++++XXX ",
" +++OOOO@@@@XXXX++++....XXXX@@@@++++++++XXXX++++XXXX@@@@++++XXX ",
" +++OOOO@@@@XXXX++++....XXXX@@@@++++++++XXXX++++XXXX@@@@++++XXX ",
" +++XXXX++++@@@@....++++XXXXXXXX++++....XXXXOOOOXXXX++++....XXX ",
" +++XXXX++++@@@@....++++XXXXXXXX++++....XXXXOOOOXXXX++++....XXX ",
" +++XXXX++++@@@@....++++XXXXXXXX++++....XXXXOOOOXXXX++++....XXX ",
" +++XXXX++++@@@@....++++XXXXXXXX++++....XXXXOOOOXXXX++++....XXX ",
" XXX....++++++++XXXX++++............XXXXXXXX....XXXXXXXXXXXX@@@ ",
" XXX....++++++++XXXX++++............XXXXXXXX....XXXXXXXXXXXX@@@ ",
" XXX....++++++++XXXX++++............XXXXXXXX....XXXXXXXXXXXX@@@ ",
" XXX....++++++++XXXX++++............XXXXXXXX....XXXXXXXXXXXX@@@ ",
" @@@XXXXXXXXXXXX####XXXXXXXX@@@@@@@@XXXX@@@@@@@@XXXX++++XXXX+++ ",
" @@@XXXXXXXXXXXX####XXXXXXXX@@@@@@@@XXXX@@@@@@@@XXXX++++XXXX+++ ",
" @@@XXXXXXXXXXXX####XXXXXXXX@@@@@@@@XXXX@@@@@@@@XXXX++++XXXX+++ ",
" @@@XXXXXXXXXXXX####XXXXXXXX@@@@@@@@XXXX@@@@@@@@XXXX++++XXXX+++ ",
" XXXXXXX@@@@@@@@++++++++XXXXXXXX++++....++++++++XXXXXXXX+++++++ ",
" XXXXXXX@@@@@@@@++++++++XXXXXXXX++++....++++++++XXXXXXXX+++++++ ",
" XXXXXXX@@@@@@@@++++++++XXXXXXXX++++....++++++++XXXXXXXX+++++++ ",
" XXXXXXX@@@@@@@@++++++++XXXXXXXX++++....++++++++XXXXXXXX+++++++ ",
" +++XXXXXXXX++++XXXX++++XXXX....XXXX++++++++XXXXXXXXXXXX....XXX ",
" +++XXXXXXXX++++XXXX++++XXXX....XXXX++++++++XXXXXXXXXXXX....XXX ",
" +++XXXXXXXX++++XXXX++++XXXX....XXXX++++++++XXXXXXXXXXXX....XXX ",
" +++XXXXXXXX++++XXXX++++XXXX....XXXX++++++++XXXXXXXXXXXX....XXX ",
" XXX++++....XXXXXXXX........XXXXXXXXXXXXXXXXXXXX@@@@@@@@XXXX+++ ",
" XXX++++....XXXXXXXX........XXXXXXXXXXXXXXXXXXXX@@@@@@@@XXXX+++ ",
" XXX++++....XXXXXXXX........XXXXXXXXXXXXXXXXXXXX@@@@@@@@XXXX+++ ",
" XXX++++....XXXXXXXX........XXXXXXXXXXXXXXXXXXXX@@@@@@@@XXXX+++ ",
" XXX++++XXXX@@@@@@@@XXXX@@@@++++....@@@@@@@@....++++++++####XXX ",
" XXX++++XXXX@@@@@@@@XXXX@@@@++++....@@@@@@@@....++++++++####XXX ",
" XXX++++XXXX@@@@@@@@XXXX@@@@++++....@@@@@@@@....++++++++####XXX ",
" XXX++++XXXX@@@@@@@@XXXX@@@@++++....@@@@@@@@....++++++++####XXX ",
" +++XXXXXXXX++++++++@@@@XXXX++++OOOO++++++++XXXX....++++XXXX... ",
" +++XXXXXXXX++++++++@@@@XXXX++++OOOO++++++++XXXX....++++XXXX... ",
" +++XXXXXXXX++++++++@@@@XXXX++++OOOO++++++++XXXX....++++XXXX... ",
" +++XXXXXXXX++++++++@@@@XXXX++++OOOO++++++++XXXX....++++XXXX... ",
" XXX....++++XXXX++++++++@@@@XXXXXXXXXXXXXXXXXXXXXXXXXXXX@@@@@@@ ",
" XXX....++++XXXX++++++++@@@@XXXXXXXXXXXXXXXXXXXXXXXXXXXX@@@@@@@ ",
" XXX....++++XXXX++++++++@@@@XXXXXXXXXXXXXXXXXXXXXXXXXXXX@@@@@@@ ",
" XXX....++++XXXX++++++++@@@@XXXXXXXXXXXXXXXXXXXXXXXXXXXX@@@@@@@ ",
" XXX++++XXXXXXXXooooXXXX++++++++XXXX....@@@@....XXXX@@@@+++++++ ",
" XXX++++XXXXXXXXooooXXXX++++++++XXXX....@@@@....XXXX@@@@+++++++ ",
" XXX++++XXXXXXXXooooXXXX++++++++XXXX....@@@@....XXXX@@@@+++++++ ",
" XXX++++XXXXXXXXooooXXXX++++++++XXXX....@@@@....XXXX@@@@+++++++ ",
" +++XXXX....@@@@XXXX....XXXX....@@@@@@@@XXXX++++XXXXXXXX+++++++ ",
" +++XXXX....@@@@XXXX....XXXX....@@@@@@@@XXXX++++XXXXXXXX+++++++ ",
" +++XXXX....@@@@XXXX....XXXX....@@@@@@@@XXXX++++XXXXXXXX+++++++ ",
" +++XXXX....@@@@XXXX....XXXX....@@@@@@@@XXXX++++XXXXXXXX+++++++ ",
" +++XXXX@@@@++++++++XXXX####XXXX++++++++XXXXXXXX++++++++XXXX... ",
" +++XXXX@@@@++++++++XXXX####XXXX++++++++XXXXXXXX++++++++XXXX... ",
" +++XXXX@@@@++++++++XXXX####XXXX++++++++XXXXXXXX++++++++XXXX... ",
"                                                                "
};
