/* XPM */
static char *_c8a89b1348f4c2cda0c5b83747aa633IDWoGc0yxn4v580b[] = {
/* columns rows colors chars-per-pixel */
"32 32 4 1 ",
"  c black",
". c #0000A0",
"X c #FF80FF",
"o c white",
/* pixels */
"                                ",
"                                ",
"        XXXXXXXXXXXXXXXX        ",
"        XXXXXXXXXXXXXXXX        ",
"      XXXXXXXXXXXXXXXXXXXX      ",
"      XXXXXXXXXXXXXXXXXXXX      ",
"    XXXXooooXXXXXXooooXXXXXX    ",
"    XXXXooooXXXXXXooooXXXXXX    ",
"    XXooooooooXXooooooooXXXX    ",
"    XXooooooooXXooooooooXXXX    ",
"    XX....ooooXX....ooooXXXX    ",
"    XX....ooooXX....ooooXXXX    ",
"    XX....ooooXX....ooooXXXX    ",
"    XX....ooooXX....ooooXXXX    ",
"    XXXXooooXXXXXXooooXXXXXX    ",
"    XXXXooooXXXXXXooooXXXXXX    ",
"    XXXXXXXXXXXXXXXXXXXXXXXX    ",
"    XXXXXXXXXXXXXXXXXXXXXXXX    ",
"    XXXXXXXXXXXXXXXXXXXXXXXX    ",
"    XXXXXXXXXXXXXXXXXXXXXXXX    ",
"    XXXXXXXXXXXXXXXXXXXXXXXX    ",
"    XXXXXXXXXXXXXXXXXXXXXXXX    ",
"    XXXXXXXXXXXXXXXXXXXXXXXX    ",
"    XXXXXXXXXXXXXXXXXXXXXXXX    ",
"      XXXX  XXXX  XXXX  XXXX    ",
"      XXXX  XXXX  XXXX  XXXX    ",
"        XX    XX    XX    XX    ",
"        XX    XX    XX    XX    ",
"                                ",
"                                ",
"                                ",
"                                "
};
