/* XPM */
static char *_50d78e4abde4748fb2f7b2fc23aeb46xiyUFeaJV5BlU21X[] = {
/* columns rows colors chars-per-pixel */
"32 32 2 1 ",
"  c black",
". c #ED1C24",
/* pixels */
"                                ",
"                                ",
"                                ",
"                                ",
"                                ",
"    .                           ",
"    .                           ",
"     .                    .     ",
"      .                  .      ",
"       .               ..       ",
"        .            ..         ",
"         .         ..           ",
"          .       .             ",
"           .     .              ",
"            .  ..               ",
"             ..                 ",
"           ..  ..               ",
"          .      ..             ",
"         .         ..           ",
"       ..            .          ",
"      .              .          ",
"    ..                ..        ",
"  ...                   .       ",
"                         ..     ",
"                           ..   ",
"                                ",
"                                ",
"                                ",
"                                ",
"                                ",
"                                ",
"                                "
};
