/* XPM */
static char *dbdd76d1a2d043a7fbd15a53cc367bd9cugStu8HRZSz06VK[] = {
/* columns rows colors chars-per-pixel */
"32 32 3 1 ",
"  c black",
". c gray17",
"X c #464646",
/* pixels */
"                                ",
"                                ",
"                                ",
"             XXXXXXX            ",
"          XXXX.....XXXX         ",
"         XX...........XX        ",
"       XXX.............XXX      ",
"      XX.................XX     ",
"     XX...................XX    ",
"     X.....................X    ",
"    XX.....................XX   ",
"    X.......................X   ",
"   XX.......................XX  ",
"   X.........................X  ",
"   X.........................X  ",
"   X.........................X  ",
"   X.........................X  ",
"   X.........................X  ",
"   XX.......................XX  ",
"    X.......................X   ",
"    XX.....................XX   ",
"     X.....................X    ",
"     XX...................XX    ",
"      XX.................XX     ",
"       XXX.............XXX      ",
"         XX...........XX        ",
"          XXXX.....XXXX         ",
"             XXXXXXX            ",
"                                ",
"                                ",
"                                ",
"                                "
};
